<svg width="18" height="14" viewBox="0 0 18 14" fill="none" xmlns="http://www.w3.org/2000/svg">
<path d="M3.75 8.5C4.7165 8.5 5.5 7.7165 5.5 6.75C5.5 5.7835 4.7165 5 3.75 5C2.7835 5 2 5.7835 2 6.75C2 7.7165 2.7835 8.5 3.75 8.5Z" fill="#29A6DF"/>
<path d="M8.75 8.5C9.7165 8.5 10.5 7.7165 10.5 6.75C10.5 5.7835 9.7165 5 8.75 5C7.7835 5 7 5.7835 7 6.75C7 7.7165 7.7835 8.5 8.75 8.5Z" fill="#29A6DF"/>
<path d="M13.75 8.5C14.7165 8.5 15.5 7.7165 15.5 6.75C15.5 5.7835 14.7165 5 13.75 5C12.7835 5 12 5.7835 12 6.75C12 7.7165 12.7835 8.5 13.75 8.5Z" fill="#29A6DF"/>
</svg>
