<svg width="196" height="196" viewBox="0 0 196 196" fill="none" xmlns="http://www.w3.org/2000/svg">
<g clip-path="url(#clip0_63_43)">
<g clip-path="url(#clip1_63_43)">
<path d="M224.311 -28.3112H-28.3111V224.311H224.311V-28.3112Z" fill="white"/>
</g>
<g clip-path="url(#clip2_63_43)">
<path fill-rule="evenodd" clip-rule="evenodd" d="M0 0H9.56098V4.78049H19.122V9.56098H28.6829V19.122H23.9024V14.3415H14.3415V9.56098H0V0ZM19.122 0H23.9024V4.78049H19.122V0ZM28.6829 0H33.4634V4.78049H28.6829V0ZM43.0244 0H71.7073V4.78049H57.3659V9.56098H52.5854V4.78049H47.8049V14.3415H52.5854V28.6829H57.3659V33.4634H52.5854V38.2439H47.8049V43.0244H52.5854V47.8049H47.8049V52.5854H43.0244V57.3659H38.2439V43.0244H43.0244V33.4634H38.2439V28.6829H47.8049V19.122H43.0244V23.9024H38.2439V19.122H33.4634V9.56098H43.0244V0ZM76.4878 0H86.0488V4.78049H76.4878V0ZM95.6098 0H109.951V23.9024H105.171V19.122H100.39V14.3415H95.6098V9.56098H105.171V4.78049H95.6098V0ZM114.732 0H119.512V9.56098H114.732V0ZM124.293 0H129.073V4.78049H133.854V9.56098H129.073V23.9024H124.293V19.122H119.512V14.3415H124.293V0ZM143.415 0H148.195V4.78049H143.415V0ZM162.537 0H167.317V4.78049H162.537V0ZM172.098 0H176.878V4.78049H172.098V0ZM186.439 0H191.22V9.56098H181.659V4.78049H186.439V0ZM71.7073 4.78049H76.4878V14.3415H81.2683V9.56098H86.0488V14.3415H95.6098V19.122H90.8293V23.9024H95.6098V28.6829H86.0488V19.122H81.2683V28.6829H86.0488V43.0244H90.8293V33.4634H95.6098V38.2439H105.171V33.4634H95.6098V28.6829H100.39V23.9024H105.171V28.6829H109.951V43.0244H105.171V47.8049H100.39V43.0244H95.6098V47.8049H86.0488V52.5854H95.6098V57.3659H105.171V62.1463H95.6098V66.9268H119.512V62.1463H124.293V66.9268H129.073V62.1463H124.293V47.8049H133.854V57.3659H157.756V62.1463H152.976V66.9268H148.195V62.1463H143.415V66.9268H138.634V62.1463H133.854V66.9268H138.634V76.4878H143.415V81.2683H133.854V90.8293H129.073V100.39H133.854V105.171H143.415V109.951H152.976V105.171H157.756V114.732H162.537V129.073H157.756V119.512H152.976V114.732H133.854V109.951H129.073V114.732H133.854V119.512H129.073V124.293H133.854V129.073H119.512V133.854H129.073V148.195H138.634V152.976H143.415V143.415H157.756V157.756H143.415V162.537H138.634V167.317H124.293V162.537H133.854V157.756H129.073V152.976H124.293V138.634H119.512V143.415H114.732V148.195H105.171V143.415H100.39V138.634H95.6098V143.415H100.39V148.195H95.6098V152.976H100.39V148.195H105.171V152.976H109.951V157.756H114.732V148.195H119.512V152.976H124.293V162.537H114.732V167.317H109.951V186.439H119.512V176.878H124.293V181.659H129.073V186.439H124.293V196H119.512V191.22H114.732V196H90.8293V191.22H105.171V186.439H90.8293V191.22H86.0488V172.098H90.8293V181.659H100.39V176.878H105.171V157.756H95.6098V162.537H100.39V167.317H95.6098V172.098H90.8293V162.537H81.2683V167.317H76.4878V143.415H81.2683V138.634H86.0488V143.415H90.8293V133.854H100.39V129.073H90.8293V133.854H76.4878V129.073H66.9268V124.293H62.1463V119.512H66.9268V114.732H62.1463V109.951H66.9268V95.6098H62.1463V90.8293H66.9268V71.7073H62.1463V66.9268H57.3659V76.4878H62.1463V81.2683H43.0244V76.4878H38.2439V66.9268H43.0244V71.7073H52.5854V62.1463H57.3659V52.5854H52.5854V47.8049H57.3659V43.0244H52.5854V38.2439H62.1463V33.4634H66.9268V38.2439H76.4878V43.0244H71.7073V47.8049H76.4878V52.5854H71.7073V57.3659H62.1463V62.1463H71.7073V66.9268H81.2683V62.1463H71.7073V57.3659H76.4878V52.5854H81.2683V33.4634H66.9268V19.122H71.7073V23.9024H76.4878V19.122H71.7073V4.78049ZM138.634 4.78049H143.415V9.56098H138.634V4.78049ZM148.195 4.78049H157.756V9.56098H167.317V23.9024H162.537V14.3415H157.756V23.9024H162.537V28.6829H157.756V38.2439H152.976V19.122H148.195V14.3415H152.976V9.56098H148.195V4.78049ZM167.317 4.78049H172.098V9.56098H167.317V4.78049ZM57.3659 9.56098H66.9268V14.3415H57.3659V9.56098ZM172.098 9.56098H176.878V14.3415H172.098V9.56098ZM0 14.3415H9.56098V19.122H4.78049V23.9024H0V14.3415ZM138.634 14.3415H143.415V19.122H138.634V14.3415ZM181.659 14.3415H191.22V19.122H186.439V28.6829H191.22V33.4634H186.439V38.2439H176.878V33.4634H181.659V28.6829H176.878V23.9024H181.659V14.3415ZM9.56098 19.122H14.3415V28.6829H4.78049V23.9024H9.56098V19.122ZM19.122 19.122H23.9024V23.9024H19.122V19.122ZM28.6829 19.122H33.4634V23.9024H38.2439V28.6829H28.6829V19.122ZM57.3659 19.122H62.1463V23.9024H57.3659V19.122ZM95.6098 19.122H100.39V23.9024H95.6098V19.122ZM114.732 19.122H119.512V23.9024H124.293V28.6829H114.732V19.122ZM133.854 19.122H138.634V23.9024H133.854V19.122ZM143.415 19.122H148.195V38.2439H143.415V43.0244H152.976V52.5854H138.634V47.8049H133.854V43.0244H138.634V33.4634H143.415V28.6829H138.634V23.9024H143.415V19.122ZM172.098 19.122H176.878V23.9024H172.098V19.122ZM191.22 19.122H196V28.6829H191.22V19.122ZM129.073 23.9024H133.854V28.6829H129.073V23.9024ZM14.3415 28.6829H23.9024V33.4634H19.122V38.2439H38.2439V43.0244H33.4634V57.3659H38.2439V62.1463H19.122V66.9268H23.9024V71.7073H19.122V76.4878H23.9024V71.7073H28.6829V76.4878H33.4634V81.2683H38.2439V86.0488H28.6829V81.2683H9.56098V86.0488H23.9024V90.8293H19.122V95.6098H14.3415V90.8293H9.56098V95.6098H4.78049V90.8293H0V86.0488H4.78049V71.7073H9.56098V76.4878H14.3415V71.7073H9.56098V66.9268H14.3415V43.0244H4.78049V47.8049H0V38.2439H9.56098V33.4634H14.3415V28.6829ZM124.293 28.6829H129.073V33.4634H133.854V38.2439H129.073V43.0244H124.293V47.8049H119.512V43.0244H114.732V33.4634H119.512V38.2439H124.293V28.6829ZM133.854 28.6829H138.634V33.4634H133.854V28.6829ZM162.537 28.6829H167.317V33.4634H162.537V28.6829ZM172.098 28.6829H176.878V33.4634H172.098V28.6829ZM167.317 33.4634H172.098V38.2439H176.878V43.0244H167.317V33.4634ZM191.22 33.4634H196V38.2439H191.22V33.4634ZM186.439 38.2439H191.22V43.0244H196V47.8049H186.439V38.2439ZM19.122 43.0244V47.8049H23.9024V43.0244H19.122ZM62.1463 43.0244V52.5854H66.9268V43.0244H62.1463ZM162.537 43.0244H167.317V47.8049H162.537V43.0244ZM4.78049 47.8049H9.56098V52.5854H4.78049V47.8049ZM95.6098 47.8049H100.39V52.5854H95.6098V47.8049ZM109.951 47.8049H119.512V52.5854H109.951V47.8049ZM172.098 47.8049H186.439V52.5854H181.659V57.3659H191.22V62.1463H172.098V57.3659H176.878V52.5854H172.098V47.8049ZM0 52.5854H4.78049V71.7073H0V52.5854ZM19.122 52.5854V57.3659H28.6829V52.5854H19.122ZM47.8049 52.5854H52.5854V62.1463H47.8049V52.5854ZM157.756 52.5854H162.537V57.3659H157.756V52.5854ZM167.317 52.5854H172.098V57.3659H167.317V52.5854ZM86.0488 57.3659V66.9268H90.8293V57.3659H86.0488ZM114.732 57.3659H119.512V62.1463H114.732V57.3659ZM157.756 62.1463H172.098V66.9268H176.878V71.7073H172.098V76.4878H176.878V71.7073H181.659V76.4878H186.439V81.2683H181.659V86.0488H186.439V81.2683H196V86.0488H191.22V95.6098H186.439V90.8293H172.098V86.0488H176.878V81.2683H162.537V71.7073H157.756V62.1463ZM191.22 62.1463H196V66.9268H191.22V62.1463ZM186.439 66.9268H191.22V71.7073H196V76.4878H186.439V66.9268ZM71.7073 71.7073V124.293H124.293V71.7073H71.7073ZM129.073 71.7073V76.4878H133.854V71.7073H129.073ZM143.415 71.7073H152.976V76.4878H143.415V71.7073ZM76.4878 76.4878H119.512V119.512H76.4878V76.4878ZM81.2683 81.2683V114.732H114.732V81.2683H81.2683ZM148.195 81.2683H152.976V86.0488H157.756V90.8293H152.976V95.6098H148.195V90.8293H143.415V86.0488H148.195V81.2683ZM157.756 81.2683H162.537V86.0488H157.756V81.2683ZM38.2439 86.0488H57.3659V90.8293H52.5854V100.39H57.3659V105.171H43.0244V109.951H33.4634V105.171H28.6829V109.951H14.3415V124.293H9.56098V119.512H4.78049V114.732H9.56098V105.171H14.3415V100.39H19.122V105.171H23.9024V100.39H28.6829V95.6098H23.9024V90.8293H38.2439V95.6098H33.4634V100.39H38.2439V95.6098H43.0244V100.39H47.8049V95.6098H43.0244V90.8293H38.2439V86.0488ZM86.0488 86.0488H109.951V109.951H86.0488V86.0488ZM162.537 86.0488H167.317V100.39H162.537V95.6098H157.756V90.8293H162.537V86.0488ZM90.8293 90.8293V105.171H105.171V90.8293H90.8293ZM138.634 90.8293H143.415V95.6098H138.634V90.8293ZM0 95.6098H4.78049V100.39H9.56098V105.171H0V95.6098ZM9.56098 95.6098H14.3415V100.39H9.56098V95.6098ZM19.122 95.6098H23.9024V100.39H19.122V95.6098ZM57.3659 95.6098H62.1463V100.39H57.3659V95.6098ZM95.6098 95.6098H100.39V100.39H95.6098V95.6098ZM133.854 95.6098H138.634V100.39H133.854V95.6098ZM143.415 95.6098H148.195V100.39H143.415V95.6098ZM152.976 95.6098H157.756V100.39H152.976V95.6098ZM172.098 95.6098H176.878V100.39H172.098V95.6098ZM181.659 95.6098H186.439V100.39H181.659V95.6098ZM191.22 95.6098H196V100.39H191.22V95.6098ZM157.756 100.39H162.537V105.171H157.756V100.39ZM57.3659 105.171H62.1463V109.951H57.3659V105.171ZM167.317 105.171H176.878V109.951H172.098V114.732H176.878V119.512H167.317V105.171ZM191.22 105.171H196V109.951H191.22V105.171ZM28.6829 109.951H33.4634V119.512H19.122V114.732H28.6829V109.951ZM47.8049 109.951H52.5854V119.512H47.8049V133.854H52.5854V143.415H66.9268V148.195H47.8049V138.634H43.0244V133.854H38.2439V143.415H43.0244V148.195H33.4634V143.415H28.6829V138.634H33.4634V133.854H28.6829V129.073H19.122V124.293H33.4634V129.073H43.0244V124.293H38.2439V119.512H43.0244V114.732H47.8049V109.951ZM176.878 109.951H191.22V114.732H176.878V109.951ZM191.22 114.732H196V119.512H191.22V114.732ZM0 119.512H4.78049V129.073H0V119.512ZM138.634 119.512H148.195V124.293H143.415V129.073H138.634V119.512ZM186.439 119.512H191.22V124.293H196V129.073H186.439V119.512ZM57.3659 124.293H62.1463V129.073H57.3659V124.293ZM172.098 124.293H176.878V129.073H172.098V124.293ZM4.78049 129.073H9.56098V133.854H4.78049V129.073ZM14.3415 129.073H19.122V133.854H14.3415V129.073ZM105.171 129.073V133.854H109.951V138.634H114.732V133.854H109.951V129.073H105.171ZM133.854 129.073H138.634V138.634H143.415V143.415H133.854V129.073ZM143.415 129.073H148.195V138.634H143.415V129.073ZM152.976 129.073H157.756V138.634H152.976V129.073ZM167.317 129.073H172.098V133.854H176.878V138.634H172.098V143.415H181.659V138.634H191.22V143.415H186.439V148.195H162.537V143.415H167.317V138.634H162.537V133.854H167.317V129.073ZM176.878 129.073H186.439V133.854H176.878V129.073ZM0 133.854H4.78049V138.634H9.56098V143.415H4.78049V148.195H0V133.854ZM9.56098 133.854H14.3415V138.634H9.56098V133.854ZM19.122 133.854H23.9024V138.634H19.122V133.854ZM57.3659 133.854H62.1463V138.634H57.3659V133.854ZM66.9268 133.854H71.7073V143.415H66.9268V133.854ZM14.3415 138.634H19.122V143.415H14.3415V138.634ZM19.122 143.415H28.6829V148.195H19.122V143.415ZM191.22 143.415H196V148.195H191.22V143.415ZM28.6829 148.195H33.4634V152.976H28.6829V148.195ZM186.439 148.195H191.22V152.976H186.439V148.195ZM0 152.976H14.3415V162.537H9.56098V172.098H4.78049V176.878H9.56098V181.659H4.78049V186.439H0V162.537H4.78049V157.756H0V152.976ZM19.122 152.976H28.6829V157.756H19.122V152.976ZM43.0244 152.976H47.8049V172.098H43.0244V167.317H38.2439V157.756H43.0244V152.976ZM66.9268 152.976H71.7073V157.756H66.9268V152.976ZM81.2683 152.976V157.756H86.0488V152.976H81.2683ZM167.317 152.976H176.878V157.756H172.098V162.537H167.317V152.976ZM52.5854 157.756H62.1463V162.537H57.3659V172.098H52.5854V157.756ZM176.878 157.756H191.22V162.537H196V167.317H186.439V162.537H176.878V157.756ZM14.3415 162.537H33.4634V167.317H28.6829V172.098H23.9024V167.317H19.122V172.098H14.3415V162.537ZM62.1463 162.537H71.7073V167.317H66.9268V172.098H62.1463V162.537ZM148.195 162.537H167.317V167.317H162.537V172.098H157.756V176.878H152.976V172.098H148.195V162.537ZM172.098 162.537H176.878V167.317H172.098V162.537ZM33.4634 167.317H38.2439V172.098H33.4634V167.317ZM81.2683 167.317H86.0488V172.098H81.2683V167.317ZM114.732 167.317H119.512V176.878H114.732V167.317ZM167.317 167.317H172.098V172.098H167.317V167.317ZM9.56098 172.098H14.3415V176.878H9.56098V172.098ZM19.122 172.098H23.9024V176.878H19.122V172.098ZM28.6829 172.098H33.4634V176.878H28.6829V172.098ZM38.2439 172.098H43.0244V176.878H38.2439V172.098ZM47.8049 172.098H52.5854V181.659H57.3659V186.439H52.5854V191.22H47.8049V196H43.0244V191.22H28.6829V196H19.122V191.22H23.9024V186.439H33.4634V176.878H38.2439V186.439H47.8049V172.098ZM57.3659 172.098H62.1463V176.878H57.3659V172.098ZM66.9268 172.098H71.7073V176.878H66.9268V172.098ZM76.4878 172.098H81.2683V176.878H76.4878V172.098ZM95.6098 172.098H100.39V176.878H95.6098V172.098ZM124.293 172.098H129.073V176.878H124.293V172.098ZM133.854 172.098H138.634V191.22H133.854V172.098ZM143.415 172.098H148.195V176.878H143.415V172.098ZM162.537 172.098H167.317V176.878H162.537V172.098ZM172.098 172.098H176.878V176.878H172.098V172.098ZM181.659 172.098H186.439V176.878H181.659V172.098ZM191.22 172.098H196V176.878H191.22V172.098ZM71.7073 176.878H76.4878V181.659H71.7073V176.878ZM148.195 176.878H152.976V181.659H157.756V186.439H152.976V191.22H148.195V176.878ZM157.756 176.878H162.537V181.659H157.756V176.878ZM186.439 176.878H191.22V181.659H196V196H181.659V186.439H172.098V181.659H186.439V176.878ZM9.56098 181.659H23.9024V186.439H19.122V191.22H14.3415V196H9.56098V181.659ZM62.1463 181.659H71.7073V186.439H66.9268V191.22H62.1463V196H57.3659V186.439H62.1463V181.659ZM76.4878 186.439H81.2683V191.22H86.0488V196H76.4878V186.439ZM186.439 186.439V191.22H191.22V186.439H186.439ZM138.634 191.22H143.415V196H138.634V191.22ZM162.537 191.22H176.878V196H162.537V191.22Z" fill="black"/>
</g>
</g>
<defs>
<clipPath id="clip0_63_43">
<rect width="196" height="196" fill="white"/>
</clipPath>
<clipPath id="clip1_63_43">
<rect width="252.622" height="252.622" fill="white" transform="translate(-28.3111 -28.3112)"/>
</clipPath>
<clipPath id="clip2_63_43">
<rect width="196" height="196" fill="white"/>
</clipPath>
</defs>
</svg>
