<svg data-cached="true" xmlns="http://www.w3.org/2000/svg" width="232" height="232" viewBox="0 0 232 232" preserveAspectRatio="xMidYMid meet"><svg id="__background" x="0" y="0" width="232" height="232" preserveAspectRatio="xMidYMid meet"><rect x="0" y="0" width="232" height="232" fill="#ffffff" stroke="none" stroke-width="0px"/></svg><g id="__padding" transform="translate(26 26)"><svg id="data" x="0" y="0" width="180" height="180" viewBox="0 0 492 492" preserveAspectRatio="xMinYMid meet"><path d="M0 0L36 0L36 12L24 12L24 24L0 24ZM48 0L84 0L84 12L72 12L72 24L84 24L84 36L48 36L48 24L60 24L60 12L48 12ZM108 0L120 0L120 24L108 24ZM132 0L156 0L156 12L132 12ZM180 0L192 0L192 12L180 12ZM204 0L216 0L216 24L228 24L228 0L264 0L264 12L240 12L240 24L252 24L252 36L228 36L228 60L240 60L240 72L264 72L264 84L240 84L240 96L228 96L228 84L204 84L204 72L192 72L192 48L204 48L204 60L216 60L216 36L204 36ZM288 0L300 0L300 12L288 12ZM312 0L336 0L336 12L324 12L324 36L312 36L312 48L300 48L300 36L276 36L276 24L312 24ZM348 0L384 0L384 12L372 12L372 36L360 36L360 12L348 12ZM408 0L420 0L420 36L408 36ZM432 0L468 0L468 12L456 12L456 24L444 24L444 12L432 12ZM156 12L168 12L168 24L156 24ZM264 12L276 12L276 24L264 24ZM336 12L348 12L348 24L336 24ZM468 12L480 12L480 24L468 24ZM96 24L108 24L108 36L120 36L120 48L108 48L108 84L96 84L96 96L84 96L84 72L96 72L96 48L84 48L84 36L96 36ZM132 24L156 24L156 36L132 36ZM168 24L180 24L180 36L192 36L192 48L180 48L180 60L168 60L168 48L156 48L156 36L168 36ZM432 24L444 24L444 36L432 36ZM456 24L468 24L468 60L456 60ZM480 24L492 24L492 36L480 36ZM0 36L48 36L48 48L36 48L36 72L12 72L12 60L24 60L24 48L12 48L12 60L0 60ZM252 36L264 36L264 48L252 48ZM324 36L336 36L336 48L324 48ZM372 36L384 36L384 48L372 48ZM420 36L432 36L432 48L420 48ZM48 48L60 48L60 60L48 60ZM72 48L84 48L84 60L72 60ZM120 48L132 48L132 60L120 60ZM144 48L156 48L156 84L180 84L180 108L204 108L204 120L180 120L180 132L168 132L168 144L144 144L144 132L156 132L156 108L144 108L144 96L132 96L132 72L144 72ZM240 48L252 48L252 60L240 60ZM264 48L276 48L276 60L288 60L288 72L264 72ZM288 48L300 48L300 60L288 60ZM312 48L324 48L324 60L312 60ZM336 48L348 48L348 60L336 60ZM360 48L372 48L372 60L360 60ZM384 48L396 48L396 60L384 60ZM408 48L420 48L420 60L408 60ZM432 48L444 48L444 60L432 60ZM480 48L492 48L492 72L468 72L468 60L480 60ZM372 60L384 60L384 72L396 72L396 60L408 60L408 72L420 72L420 96L456 96L456 108L408 108L408 96L396 96L396 108L408 108L408 120L444 120L444 132L432 132L432 144L456 144L456 156L420 156L420 168L408 168L408 144L396 144L396 132L384 132L384 120L360 120L360 132L348 132L348 108L372 108ZM444 60L456 60L456 72L444 72ZM36 72L72 72L72 84L36 84ZM180 72L192 72L192 84L180 84ZM312 72L348 72L348 84L336 84L336 144L324 144L324 156L312 156L312 144L288 144L288 132L300 132L300 108L312 108ZM432 72L444 72L444 84L432 84ZM24 84L36 84L36 96L24 96ZM192 84L204 84L204 96L192 96ZM456 84L468 84L468 96L456 96ZM480 84L492 84L492 108L480 108ZM0 96L24 96L24 108L12 108L12 120L0 120ZM36 96L60 96L60 108L48 108L48 120L24 120L24 108L36 108ZM72 96L84 96L84 108L72 108ZM96 96L120 96L120 108L108 108L108 120L84 120L84 108L96 108ZM240 96L252 96L252 108L240 108ZM264 96L300 96L300 108L288 108L288 120L276 120L276 108L264 108ZM60 108L72 108L72 132L48 132L48 120L60 120ZM216 108L240 108L240 120L252 120L252 132L228 132L228 120L216 120ZM468 108L480 108L480 120L468 120ZM12 120L24 120L24 132L12 132ZM120 120L132 120L132 132L120 132ZM480 120L492 120L492 144L480 144ZM0 132L12 132L12 180L0 180ZM84 132L108 132L108 144L84 144ZM180 132L192 132L192 144L180 144ZM204 132L216 132L216 144L252 144L252 132L264 132L264 144L276 144L276 156L240 156L240 168L300 168L300 156L312 156L312 168L324 168L324 156L336 156L336 168L360 168L360 180L348 180L348 204L336 204L336 192L324 192L324 228L336 228L336 216L348 216L348 204L360 204L360 228L372 228L372 216L384 216L384 240L372 240L372 252L360 252L360 240L348 240L348 252L336 252L336 240L324 240L324 252L336 252L336 264L324 264L324 276L336 276L336 264L348 264L348 276L360 276L360 264L384 264L384 240L396 240L396 288L384 288L384 300L420 300L420 312L408 312L408 324L396 324L396 336L384 336L384 324L360 324L360 336L348 336L348 288L324 288L324 312L336 312L336 324L312 324L312 348L300 348L300 324L276 324L276 336L288 336L288 348L300 348L300 372L288 372L288 360L276 360L276 348L228 348L228 360L216 360L216 336L228 336L228 324L216 324L216 336L204 336L204 324L192 324L192 360L204 360L204 372L192 372L192 384L180 384L180 372L168 372L168 360L180 360L180 348L168 348L168 336L180 336L180 324L168 324L168 300L156 300L156 312L144 312L144 300L120 300L120 288L132 288L132 276L120 276L120 264L108 264L108 252L120 252L120 228L144 228L144 240L132 240L132 264L144 264L144 288L156 288L156 264L168 264L168 240L156 240L156 228L168 228L168 204L156 204L156 192L168 192L168 180L156 180L156 168L132 168L132 180L120 180L120 204L108 204L108 180L96 180L96 168L72 168L72 192L84 192L84 204L72 204L72 216L84 216L84 204L108 204L108 252L96 252L96 228L72 228L72 240L60 240L60 228L48 228L48 240L36 240L36 252L24 252L24 240L12 240L12 228L0 228L0 216L12 216L12 180L48 180L48 192L60 192L60 180L48 180L48 168L60 168L60 156L72 156L72 144L84 144L84 156L180 156L180 168L204 168ZM360 132L384 132L384 156L372 156L372 168L360 168L360 156L336 156L336 144L360 144ZM456 132L468 132L468 144L456 144ZM36 144L60 144L60 156L48 156L48 168L36 168ZM468 144L480 144L480 156L492 156L492 180L480 180L480 192L468 192L468 180L456 180L456 168L468 168ZM216 156L216 168L228 168L228 156ZM372 168L396 168L396 180L408 180L408 228L396 228L396 192L384 192L384 204L360 204L360 192L372 192ZM432 168L444 168L444 180L432 180ZM132 180L156 180L156 192L132 192ZM180 180L180 312L312 312L312 180ZM420 180L432 180L432 192L468 192L468 204L456 204L456 216L444 216L444 204L432 204L432 216L420 216ZM24 192L24 228L36 228L36 192ZM192 192L300 192L300 300L192 300ZM48 204L48 216L60 216L60 204ZM132 204L156 204L156 216L132 216ZM204 204L204 288L288 288L288 204ZM468 204L480 204L480 228L468 228ZM216 216L276 216L276 276L216 276ZM432 216L444 216L444 228L432 228ZM228 228L228 264L264 264L264 228ZM456 228L468 228L468 252L456 252ZM0 240L12 240L12 252L24 252L24 264L0 264ZM48 240L60 240L60 252L48 252ZM72 240L84 240L84 264L108 264L108 300L96 300L96 288L84 288L84 276L72 276ZM144 240L156 240L156 264L144 264ZM240 240L252 240L252 252L240 252ZM408 240L420 240L420 252L432 252L432 264L444 264L444 276L420 276L420 264L408 264ZM432 240L444 240L444 252L432 252ZM480 240L492 240L492 264L480 264ZM36 252L48 252L48 264L36 264ZM444 252L456 252L456 264L444 264ZM24 264L36 264L36 276L24 276ZM48 264L60 264L60 276L48 276ZM408 276L420 276L420 288L408 288ZM444 276L468 276L468 288L456 288L456 300L420 300L420 288L444 288ZM12 288L24 288L24 300L12 300ZM36 288L60 288L60 300L36 300ZM360 288L360 312L372 312L372 288ZM468 288L492 288L492 300L468 300ZM0 300L12 300L12 324L0 324ZM60 300L84 300L84 324L120 324L120 312L132 312L132 324L156 324L156 336L132 336L132 348L120 348L120 336L96 336L96 360L72 360L72 348L84 348L84 336L72 336L72 348L48 348L48 336L60 336L60 324L48 324L48 312L60 312ZM432 312L444 312L444 324L432 324ZM456 312L468 312L468 336L456 336L456 348L468 348L468 360L456 360L456 372L420 372L420 348L432 348L432 360L444 360L444 348L432 348L432 336L444 336L444 324L456 324ZM12 324L36 324L36 360L12 360L12 372L0 372L0 336L12 336L12 348L24 348L24 336L12 336ZM240 324L240 336L264 336L264 324ZM408 324L432 324L432 336L408 336ZM480 324L492 324L492 372L480 372L480 396L492 396L492 408L468 408L468 396L456 396L456 384L468 384L468 360L480 360L480 348L468 348L468 336L480 336ZM324 336L336 336L336 348L348 348L348 360L360 360L360 372L372 372L372 360L396 360L396 372L384 372L384 384L336 384L336 372L324 372L324 360L312 360L312 348L324 348ZM360 336L384 336L384 348L360 348ZM108 348L120 348L120 360L108 360ZM132 348L156 348L156 372L168 372L168 384L132 384L132 372L120 372L120 360L132 360ZM36 360L72 360L72 384L60 384L60 372L36 372ZM96 360L108 360L108 372L96 372ZM228 360L276 360L276 372L240 372L240 384L228 384L228 396L216 396L216 372L228 372ZM84 372L96 372L96 408L84 408L84 420L96 420L96 408L108 408L108 420L120 420L120 432L108 432L108 456L120 456L120 468L132 468L132 480L120 480L120 492L108 492L108 480L72 480L72 492L48 492L48 480L60 480L60 468L48 468L48 480L36 480L36 492L24 492L24 456L72 456L72 432L60 432L60 420L48 420L48 408L72 408L72 396L84 396ZM108 372L120 372L120 384L132 384L132 396L108 396ZM408 372L420 372L420 384L408 384ZM0 384L60 384L60 396L48 396L48 408L36 408L36 444L24 444L24 432L12 432L12 444L24 444L24 456L12 456L12 468L0 468L0 408L12 408L12 396L0 396ZM240 384L264 384L264 396L276 396L276 420L264 420L264 408L252 408L252 396L240 396ZM276 384L300 384L300 396L312 396L312 408L288 408L288 396L276 396ZM312 384L324 384L324 396L312 396ZM396 384L408 384L408 396L396 396ZM420 384L444 384L444 396L420 396ZM132 396L144 396L144 408L156 408L156 420L132 420ZM156 396L168 396L168 408L156 408ZM204 396L216 396L216 432L204 432L204 456L180 456L180 468L168 468L168 480L156 480L156 492L144 492L144 468L132 468L132 456L156 456L156 444L168 444L168 432L156 432L156 420L180 420L180 444L192 444L192 420L180 420L180 408L204 408ZM228 396L240 396L240 408L252 408L252 420L240 420L240 432L228 432ZM336 396L384 396L384 408L372 408L372 420L360 420L360 408L348 408L348 444L360 444L360 456L348 456L348 468L324 468L324 456L336 456ZM408 396L420 396L420 408L408 408ZM312 408L324 408L324 444L312 444ZM384 408L396 408L396 456L384 456L384 432L372 432L372 420L384 420ZM420 408L456 408L456 432L444 432L444 420L432 420L432 432L420 432L420 444L408 444L408 420L420 420ZM252 420L264 420L264 432L252 432ZM276 420L300 420L300 444L312 444L312 456L288 456L288 432L276 432ZM480 420L492 420L492 456L480 456L480 480L444 480L444 468L432 468L432 456L468 456L468 444L480 444ZM48 432L60 432L60 444L48 444ZM84 432L84 456L96 456L96 432ZM120 432L132 432L132 456L120 456ZM144 432L156 432L156 444L144 444ZM216 432L228 432L228 444L216 444ZM240 432L252 432L252 444L240 444ZM264 432L276 432L276 444L264 444ZM360 432L372 432L372 444L360 444ZM432 432L444 432L444 444L432 444ZM456 432L468 432L468 444L456 444ZM228 444L240 444L240 456L252 456L252 468L240 468L240 480L228 480L228 492L192 492L192 468L228 468ZM420 444L432 444L432 456L420 456ZM264 456L276 456L276 468L264 468ZM396 456L408 456L408 468L396 468ZM252 468L264 468L264 492L240 492L240 480L252 480ZM276 480L300 480L300 492L276 492ZM324 480L336 480L336 492L324 492ZM348 480L372 480L372 492L348 492ZM384 480L420 480L420 492L384 492ZM432 480L444 480L444 492L432 492Z" fill="#000000" fill-rule="evenodd"/></svg></g></svg>