<svg width="196" height="196" viewBox="0 0 196 196" fill="none" xmlns="http://www.w3.org/2000/svg">
<g clip-path="url(#clip0_63_37)">
<g clip-path="url(#clip1_63_37)">
<path d="M224.311 -28.3112H-28.3111V224.311H224.311V-28.3112Z" fill="white"/>
</g>
<g clip-path="url(#clip2_63_37)">
<path fill-rule="evenodd" clip-rule="evenodd" d="M0 0H14.3415V4.78049H9.56098V9.56098H0V0ZM19.122 0H33.4634V4.78049H28.6829V9.56098H33.4634V14.3415H19.122V9.56098H23.9024V4.78049H19.122V0ZM43.0244 0H47.8049V9.56098H43.0244V0ZM52.5854 0H62.1463V4.78049H52.5854V0ZM71.7073 0H76.4878V4.78049H71.7073V0ZM81.2683 0H86.0488V9.56098H90.8293V0H105.171V4.78049H95.6098V9.56098H100.39V14.3415H90.8293V23.9024H95.6098V28.6829H105.171V33.4634H95.6098V38.2439H90.8293V33.4634H81.2683V28.6829H76.4878V19.122H81.2683V23.9024H86.0488V14.3415H81.2683V0ZM114.732 0H119.512V4.78049H114.732V0ZM124.293 0H133.854V4.78049H129.073V14.3415H124.293V19.122H119.512V14.3415H109.951V9.56098H124.293V0ZM138.634 0H152.976V4.78049H148.195V14.3415H143.415V4.78049H138.634V0ZM162.537 0H167.317V14.3415H162.537V0ZM172.098 0H186.439V4.78049H181.659V9.56098H176.878V4.78049H172.098V0ZM62.1463 4.78049H66.9268V9.56098H62.1463V4.78049ZM105.171 4.78049H109.951V9.56098H105.171V4.78049ZM133.854 4.78049H138.634V9.56098H133.854V4.78049ZM186.439 4.78049H191.22V9.56098H186.439V4.78049ZM38.2439 9.56098H43.0244V14.3415H47.8049V19.122H43.0244V33.4634H38.2439V38.2439H33.4634V28.6829H38.2439V19.122H33.4634V14.3415H38.2439V9.56098ZM52.5854 9.56098H62.1463V14.3415H52.5854V9.56098ZM66.9268 9.56098H71.7073V14.3415H76.4878V19.122H71.7073V23.9024H66.9268V19.122H62.1463V14.3415H66.9268V9.56098ZM172.098 9.56098H176.878V14.3415H172.098V9.56098ZM181.659 9.56098H186.439V23.9024H181.659V9.56098ZM191.22 9.56098H196V14.3415H191.22V9.56098ZM0 14.3415H19.122V19.122H14.3415V28.6829H4.78049V23.9024H9.56098V19.122H4.78049V23.9024H0V14.3415ZM100.39 14.3415H105.171V19.122H100.39V14.3415ZM129.073 14.3415H133.854V19.122H129.073V14.3415ZM148.195 14.3415H152.976V19.122H148.195V14.3415ZM167.317 14.3415H172.098V19.122H167.317V14.3415ZM19.122 19.122H23.9024V23.9024H19.122V19.122ZM28.6829 19.122H33.4634V23.9024H28.6829V19.122ZM47.8049 19.122H52.5854V23.9024H47.8049V19.122ZM57.3659 19.122H62.1463V33.4634H71.7073V43.0244H81.2683V47.8049H71.7073V52.5854H66.9268V57.3659H57.3659V52.5854H62.1463V43.0244H57.3659V38.2439H52.5854V28.6829H57.3659V19.122ZM95.6098 19.122H100.39V23.9024H95.6098V19.122ZM105.171 19.122H109.951V23.9024H114.732V28.6829H105.171V19.122ZM114.732 19.122H119.512V23.9024H114.732V19.122ZM124.293 19.122H129.073V23.9024H124.293V19.122ZM133.854 19.122H138.634V23.9024H133.854V19.122ZM143.415 19.122H148.195V23.9024H143.415V19.122ZM152.976 19.122H157.756V23.9024H152.976V19.122ZM162.537 19.122H167.317V23.9024H162.537V19.122ZM172.098 19.122H176.878V23.9024H172.098V19.122ZM191.22 19.122H196V28.6829H186.439V23.9024H191.22V19.122ZM148.195 23.9024H152.976V28.6829H157.756V23.9024H162.537V28.6829H167.317V38.2439H181.659V43.0244H162.537V38.2439H157.756V43.0244H162.537V47.8049H176.878V52.5854H172.098V57.3659H181.659V62.1463H167.317V66.9268H162.537V57.3659H157.756V52.5854H152.976V47.8049H143.415V52.5854H138.634V43.0244H148.195V23.9024ZM176.878 23.9024H181.659V28.6829H176.878V23.9024ZM14.3415 28.6829H28.6829V33.4634H14.3415V28.6829ZM71.7073 28.6829H76.4878V33.4634H71.7073V28.6829ZM124.293 28.6829H138.634V33.4634H133.854V57.3659H129.073V62.1463H124.293V57.3659H114.732V52.5854H119.512V43.0244H124.293V28.6829ZM172.098 28.6829H176.878V33.4634H172.098V28.6829ZM9.56098 33.4634H14.3415V38.2439H9.56098V33.4634ZM76.4878 33.4634H81.2683V38.2439H76.4878V33.4634ZM181.659 33.4634H186.439V38.2439H181.659V33.4634ZM191.22 33.4634H196V43.0244H191.22V33.4634ZM0 38.2439H9.56098V43.0244H4.78049V47.8049H0V38.2439ZM14.3415 38.2439H23.9024V43.0244H19.122V47.8049H9.56098V43.0244H14.3415V38.2439ZM28.6829 38.2439H33.4634V43.0244H28.6829V38.2439ZM38.2439 38.2439H47.8049V43.0244H43.0244V47.8049H33.4634V43.0244H38.2439V38.2439ZM95.6098 38.2439H100.39V43.0244H95.6098V38.2439ZM105.171 38.2439H119.512V43.0244H114.732V47.8049H109.951V43.0244H105.171V38.2439ZM23.9024 43.0244H28.6829V52.5854H19.122V47.8049H23.9024V43.0244ZM86.0488 43.0244H95.6098V47.8049H100.39V52.5854H90.8293V47.8049H86.0488V43.0244ZM186.439 43.0244H191.22V47.8049H186.439V43.0244ZM4.78049 47.8049H9.56098V52.5854H4.78049V47.8049ZM47.8049 47.8049H52.5854V52.5854H47.8049V47.8049ZM191.22 47.8049H196V57.3659H191.22V47.8049ZM0 52.5854H4.78049V71.7073H0V52.5854ZM33.4634 52.5854H43.0244V57.3659H33.4634V52.5854ZM71.7073 52.5854H76.4878V57.3659H71.7073V52.5854ZM81.2683 52.5854H86.0488V57.3659H100.39V52.5854H105.171V57.3659H109.951V62.1463H95.6098V66.9268H119.512V62.1463H124.293V66.9268H129.073V62.1463H133.854V66.9268H143.415V71.7073H138.634V81.2683H133.854V76.4878H129.073V90.8293H133.854V86.0488H138.634V81.2683H143.415V90.8293H148.195V86.0488H152.976V95.6098H148.195V100.39H143.415V95.6098H138.634V100.39H133.854V95.6098H129.073V100.39H133.854V105.171H129.073V109.951H133.854V105.171H138.634V109.951H143.415V105.171H152.976V95.6098H157.756V114.732H152.976V119.512H167.317V124.293H162.537V129.073H157.756V133.854H152.976V129.073H143.415V133.854H138.634V114.732H129.073V124.293H133.854V129.073H124.293V138.634H119.512V129.073H109.951V133.854H114.732V138.634H119.512V148.195H114.732V143.415H109.951V138.634H90.8293V143.415H86.0488V133.854H90.8293V129.073H86.0488V133.854H81.2683V129.073H76.4878V143.415H81.2683V148.195H76.4878V152.976H71.7073V148.195H66.9268V143.415H71.7073V138.634H66.9268V133.854H71.7073V129.073H66.9268V119.512H62.1463V124.293H57.3659V119.512H47.8049V114.732H52.5854V109.951H47.8049V105.171H43.0244V100.39H47.8049V90.8293H57.3659V95.6098H52.5854V105.171H57.3659V114.732H62.1463V105.171H66.9268V95.6098H62.1463V90.8293H66.9268V81.2683H62.1463V76.4878H66.9268V71.7073H62.1463V66.9268H52.5854V71.7073H47.8049V81.2683H43.0244V71.7073H38.2439V66.9268H28.6829V76.4878H33.4634V81.2683H28.6829V86.0488H33.4634V81.2683H43.0244V100.39H38.2439V90.8293H28.6829V95.6098H23.9024V90.8293H19.122V95.6098H14.3415V100.39H9.56098V95.6098H4.78049V90.8293H0V86.0488H4.78049V71.7073H19.122V76.4878H23.9024V71.7073H19.122V66.9268H23.9024V62.1463H28.6829V57.3659H33.4634V62.1463H71.7073V66.9268H81.2683V52.5854ZM143.415 52.5854H152.976V62.1463H148.195V66.9268H143.415V62.1463H133.854V57.3659H143.415V52.5854ZM181.659 52.5854H186.439V57.3659H181.659V52.5854ZM14.3415 57.3659H23.9024V62.1463H19.122V66.9268H14.3415V57.3659ZM186.439 57.3659H191.22V62.1463H196V71.7073H191.22V76.4878H186.439V71.7073H181.659V66.9268H186.439V57.3659ZM86.0488 62.1463V66.9268H90.8293V62.1463H86.0488ZM148.195 66.9268H157.756V71.7073H162.537V90.8293H157.756V76.4878H152.976V81.2683H143.415V76.4878H148.195V66.9268ZM172.098 66.9268H176.878V71.7073H172.098V66.9268ZM52.5854 71.7073H62.1463V76.4878H52.5854V71.7073ZM71.7073 71.7073V124.293H124.293V71.7073H71.7073ZM167.317 71.7073H172.098V76.4878H186.439V81.2683H181.659V86.0488H176.878V81.2683H172.098V86.0488H167.317V71.7073ZM9.56098 76.4878V90.8293H14.3415V76.4878H9.56098ZM76.4878 76.4878H119.512V119.512H76.4878V76.4878ZM19.122 81.2683V86.0488H23.9024V81.2683H19.122ZM52.5854 81.2683H62.1463V86.0488H52.5854V81.2683ZM81.2683 81.2683V114.732H114.732V81.2683H81.2683ZM186.439 81.2683H191.22V90.8293H186.439V81.2683ZM86.0488 86.0488H109.951V109.951H86.0488V86.0488ZM172.098 86.0488H176.878V90.8293H172.098V86.0488ZM90.8293 90.8293V105.171H105.171V90.8293H90.8293ZM181.659 90.8293H186.439V100.39H181.659V90.8293ZM0 95.6098H4.78049V100.39H9.56098V105.171H0V95.6098ZM19.122 95.6098H23.9024V100.39H19.122V95.6098ZM28.6829 95.6098H33.4634V105.171H43.0244V119.512H38.2439V114.732H33.4634V109.951H28.6829V95.6098ZM57.3659 95.6098H62.1463V105.171H57.3659V95.6098ZM95.6098 95.6098H100.39V100.39H95.6098V95.6098ZM162.537 95.6098H167.317V100.39H172.098V105.171H176.878V109.951H167.317V105.171H162.537V95.6098ZM172.098 95.6098H176.878V100.39H172.098V95.6098ZM191.22 95.6098H196V105.171H191.22V95.6098ZM14.3415 100.39H19.122V105.171H14.3415V100.39ZM176.878 100.39H181.659V105.171H176.878V100.39ZM9.56098 105.171H14.3415V109.951H9.56098V105.171ZM19.122 105.171H23.9024V109.951H19.122V105.171ZM162.537 109.951H167.317V114.732H162.537V109.951ZM176.878 109.951H186.439V114.732H181.659V119.512H167.317V114.732H176.878V109.951ZM4.78049 114.732H9.56098V119.512H4.78049V114.732ZM14.3415 114.732H23.9024V119.512H14.3415V114.732ZM143.415 114.732V124.293H148.195V114.732H143.415ZM186.439 114.732H196V119.512H186.439V114.732ZM0 119.512H4.78049V129.073H0V119.512ZM23.9024 119.512H33.4634V129.073H47.8049V124.293H52.5854V129.073H62.1463V133.854H52.5854V138.634H47.8049V133.854H38.2439V143.415H28.6829V138.634H33.4634V133.854H28.6829V138.634H19.122V133.854H23.9024V129.073H19.122V124.293H23.9024V119.512ZM172.098 124.293H176.878V129.073H172.098V124.293ZM181.659 124.293H186.439V133.854H181.659V138.634H186.439V143.415H181.659V148.195H167.317V138.634H172.098V143.415H176.878V138.634H172.098V133.854H176.878V129.073H181.659V124.293ZM4.78049 129.073H14.3415V143.415H4.78049V148.195H0V133.854H4.78049V138.634H9.56098V133.854H4.78049V129.073ZM95.6098 129.073V133.854H105.171V129.073H95.6098ZM162.537 129.073H172.098V133.854H162.537V129.073ZM191.22 129.073H196V148.195H191.22V157.756H196V162.537H186.439V157.756H181.659V152.976H186.439V143.415H191.22V138.634H186.439V133.854H191.22V129.073ZM129.073 133.854H133.854V138.634H138.634V143.415H143.415V148.195H148.195V143.415H157.756V148.195H152.976V152.976H133.854V148.195H129.073V143.415H124.293V138.634H129.073V133.854ZM143.415 133.854H152.976V138.634H143.415V133.854ZM43.0244 138.634H47.8049V143.415H43.0244V138.634ZM52.5854 138.634H62.1463V148.195H66.9268V152.976H52.5854V148.195H47.8049V143.415H52.5854V138.634ZM14.3415 143.415H28.6829V152.976H23.9024V148.195H14.3415V143.415ZM38.2439 143.415H43.0244V148.195H38.2439V143.415ZM90.8293 143.415H109.951V148.195H95.6098V152.976H90.8293V157.756H86.0488V148.195H90.8293V143.415ZM33.4634 148.195H38.2439V162.537H33.4634V167.317H38.2439V162.537H43.0244V167.317H47.8049V172.098H43.0244V181.659H47.8049V186.439H52.5854V191.22H47.8049V196H43.0244V191.22H28.6829V196H19.122V191.22H23.9024V186.439H19.122V191.22H14.3415V196H9.56098V181.659H28.6829V172.098H23.9024V167.317H19.122V162.537H28.6829V157.756H33.4634V148.195ZM43.0244 148.195H47.8049V152.976H52.5854V157.756H43.0244V148.195ZM162.537 148.195H167.317V152.976H162.537V148.195ZM0 152.976H23.9024V157.756H19.122V162.537H14.3415V176.878H9.56098V172.098H4.78049V176.878H9.56098V181.659H4.78049V186.439H0V162.537H4.78049V157.756H0V152.976ZM95.6098 152.976H105.171V157.756H109.951V167.317H105.171V162.537H100.39V157.756H95.6098V152.976ZM109.951 152.976H119.512V157.756H124.293V162.537H114.732V157.756H109.951V152.976ZM124.293 152.976H129.073V157.756H124.293V152.976ZM157.756 152.976H162.537V157.756H157.756V152.976ZM167.317 152.976H176.878V157.756H167.317V152.976ZM52.5854 157.756H57.3659V162.537H62.1463V167.317H52.5854V157.756ZM62.1463 157.756H66.9268V162.537H62.1463V157.756ZM81.2683 157.756H86.0488V172.098H81.2683V181.659H71.7073V186.439H66.9268V191.22H62.1463V196H57.3659V186.439H52.5854V181.659H62.1463V176.878H66.9268V172.098H62.1463V167.317H71.7073V176.878H76.4878V167.317H71.7073V162.537H81.2683V157.756ZM90.8293 157.756H95.6098V162.537H100.39V167.317H95.6098V172.098H90.8293V157.756ZM133.854 157.756H152.976V162.537H148.195V167.317H143.415V162.537H138.634V176.878H143.415V181.659H138.634V186.439H129.073V181.659H133.854V157.756ZM162.537 157.756H167.317V162.537H162.537V157.756ZM124.293 162.537H129.073V176.878H124.293V162.537ZM152.976 162.537H157.756V181.659H152.976V172.098H148.195V167.317H152.976V162.537ZM167.317 162.537H181.659V172.098H176.878V167.317H172.098V172.098H167.317V176.878H162.537V167.317H167.317V162.537ZM100.39 167.317H105.171V172.098H100.39V167.317ZM109.951 167.317H119.512V176.878H124.293V181.659H114.732V172.098H109.951V167.317ZM191.22 167.317H196V181.659H191.22V191.22H176.878V186.439H172.098V181.659H186.439V176.878H191.22V167.317ZM19.122 172.098H23.9024V176.878H19.122V172.098ZM33.4634 172.098V181.659H38.2439V172.098H33.4634ZM47.8049 172.098H52.5854V181.659H47.8049V172.098ZM57.3659 172.098H62.1463V176.878H57.3659V172.098ZM86.0488 172.098H90.8293V176.878H86.0488V172.098ZM95.6098 172.098H100.39V176.878H95.6098V172.098ZM105.171 172.098H109.951V176.878H105.171V172.098ZM143.415 172.098H148.195V176.878H143.415V172.098ZM172.098 172.098H176.878V176.878H172.098V172.098ZM181.659 172.098H186.439V176.878H181.659V172.098ZM90.8293 176.878H95.6098V181.659H100.39V186.439H95.6098V191.22H90.8293V196H76.4878V186.439H90.8293V176.878ZM167.317 176.878H172.098V181.659H167.317V176.878ZM105.171 181.659H109.951V186.439H105.171V181.659ZM157.756 181.659H162.537V186.439H157.756V181.659ZM100.39 186.439H105.171V196H95.6098V191.22H100.39V186.439ZM109.951 191.22H119.512V196H109.951V191.22ZM129.073 191.22H133.854V196H129.073V191.22ZM138.634 191.22H148.195V196H138.634V191.22ZM152.976 191.22H167.317V196H152.976V191.22ZM172.098 191.22H176.878V196H172.098V191.22Z" fill="black"/>
</g>
</g>
<defs>
<clipPath id="clip0_63_37">
<rect width="196" height="196" fill="white"/>
</clipPath>
<clipPath id="clip1_63_37">
<rect width="252.622" height="252.622" fill="white" transform="translate(-28.3111 -28.3112)"/>
</clipPath>
<clipPath id="clip2_63_37">
<rect width="196" height="196" fill="white"/>
</clipPath>
</defs>
</svg>
