<svg data-cached="true" xmlns="http://www.w3.org/2000/svg" width="232" height="232" viewBox="0 0 232 232" preserveAspectRatio="xMidYMid meet"><svg id="__background" x="0" y="0" width="232" height="232" preserveAspectRatio="xMidYMid meet"><rect x="0" y="0" width="232" height="232" fill="#ffffff" stroke="none" stroke-width="0px"/></svg><g id="__padding" transform="translate(26 26)"><svg id="data" x="0" y="0" width="180" height="180" viewBox="0 0 492 492" preserveAspectRatio="xMinYMid meet"><path d="M0 0L24 0L24 12L48 12L48 24L72 24L72 48L60 48L60 36L36 36L36 24L0 24ZM48 0L60 0L60 12L48 12ZM72 0L84 0L84 12L72 12ZM108 0L180 0L180 12L144 12L144 24L132 24L132 12L120 12L120 36L132 36L132 72L144 72L144 84L132 84L132 96L120 96L120 108L132 108L132 120L120 120L120 132L108 132L108 144L96 144L96 108L108 108L108 84L96 84L96 72L120 72L120 48L108 48L108 60L96 60L96 48L84 48L84 24L108 24ZM192 0L216 0L216 12L192 12ZM240 0L276 0L276 60L264 60L264 48L252 48L252 36L240 36L240 24L264 24L264 12L240 12ZM288 0L300 0L300 24L288 24ZM312 0L324 0L324 12L336 12L336 24L324 24L324 60L312 60L312 48L300 48L300 36L312 36ZM360 0L372 0L372 12L360 12ZM408 0L420 0L420 12L408 12ZM432 0L444 0L444 12L432 12ZM468 0L480 0L480 24L456 24L456 12L468 12ZM180 12L192 12L192 36L204 36L204 24L216 24L216 36L240 36L240 48L228 48L228 60L240 60L240 72L216 72L216 48L204 48L204 72L216 72L216 108L228 108L228 84L240 84L240 96L264 96L264 84L240 84L240 72L252 72L252 60L264 60L264 72L276 72L276 108L264 108L264 120L252 120L252 108L240 108L240 120L216 120L216 132L240 132L240 144L264 144L264 156L240 156L240 168L300 168L300 156L312 156L312 168L324 168L324 156L312 156L312 120L336 120L336 144L396 144L396 156L384 156L384 168L372 168L372 156L360 156L360 168L348 168L348 156L336 156L336 168L348 168L348 192L360 192L360 204L336 204L336 228L324 228L324 252L336 252L336 264L360 264L360 276L384 276L384 264L396 264L396 288L408 288L408 324L396 324L396 300L384 300L384 288L336 288L336 276L324 276L324 288L336 288L336 300L324 300L324 312L336 312L336 324L300 324L300 336L324 336L324 372L348 372L348 384L360 384L360 360L396 360L396 396L360 396L360 408L348 408L348 420L312 420L312 408L336 408L336 396L324 396L324 384L312 384L312 348L300 348L300 360L288 360L288 372L264 372L264 360L252 360L252 348L240 348L240 360L252 360L252 372L240 372L240 384L252 384L252 372L264 372L264 384L276 384L276 396L288 396L288 372L300 372L300 384L312 384L312 408L288 408L288 420L276 420L276 468L300 468L300 444L312 444L312 456L324 456L324 468L312 468L312 492L300 492L300 480L288 480L288 492L228 492L228 480L264 480L264 468L228 468L228 480L216 480L216 432L228 432L228 456L252 456L252 444L264 444L264 396L240 396L240 408L252 408L252 420L240 420L240 432L228 432L228 408L204 408L204 420L192 420L192 360L204 360L204 348L216 348L216 360L228 360L228 336L252 336L252 324L228 324L228 336L192 336L192 324L168 324L168 312L156 312L156 300L168 300L168 288L156 288L156 276L168 276L168 240L156 240L156 228L168 228L168 180L156 180L156 168L144 168L144 192L156 192L156 204L108 204L108 192L96 192L96 168L108 168L108 180L132 180L132 156L144 156L144 132L132 132L132 120L144 120L144 108L132 108L132 96L156 96L156 84L168 84L168 96L192 96L192 108L180 108L180 120L192 120L192 132L180 132L180 144L156 144L156 156L180 156L180 168L204 168L204 156L180 156L180 144L192 144L192 132L204 132L204 84L168 84L168 48L180 48L180 60L192 60L192 48L180 48ZM348 12L360 12L360 24L348 24ZM372 12L396 12L396 24L420 24L420 60L408 60L408 36L396 36L396 60L408 60L408 72L396 72L396 96L384 96L384 48L372 48L372 36L384 36L384 24L372 24ZM420 12L432 12L432 24L420 24ZM144 24L168 24L168 36L144 36ZM432 24L444 24L444 36L432 36ZM0 36L24 36L24 48L12 48L12 60L0 60ZM348 36L360 36L360 48L348 48ZM456 36L480 36L480 48L468 48L468 72L480 72L480 84L468 84L468 96L444 96L444 84L456 84L456 72L444 72L444 60L456 60ZM24 48L36 48L36 72L12 72L12 60L24 60ZM48 48L60 48L60 60L48 60ZM72 48L84 48L84 60L96 60L96 72L72 72ZM144 48L156 48L156 60L144 60ZM240 48L252 48L252 60L240 60ZM288 48L300 48L300 60L312 60L312 72L288 72ZM336 48L348 48L348 60L336 60ZM360 48L372 48L372 96L360 96L360 108L384 108L384 132L348 132L348 120L336 120L336 108L348 108L348 84L360 84L360 72L348 72L348 60L360 60ZM432 48L444 48L444 60L432 60ZM480 48L492 48L492 72L480 72ZM324 60L336 60L336 72L324 72ZM36 72L60 72L60 84L48 84L48 96L96 96L96 108L84 108L84 144L96 144L96 156L48 156L48 168L60 168L60 180L48 180L48 192L60 192L60 180L72 180L72 192L84 192L84 204L96 204L96 216L72 216L72 204L24 204L24 216L60 216L60 228L48 228L48 240L36 240L36 228L24 228L24 240L12 240L12 228L0 228L0 216L12 216L12 180L24 180L24 192L36 192L36 180L24 180L24 168L36 168L36 108L12 108L12 120L0 120L0 96L24 96L24 84L36 84ZM312 72L324 72L324 84L336 84L336 96L324 96L324 108L312 108L312 120L300 120L300 108L288 108L288 84L300 84L300 96L312 96ZM336 72L348 72L348 84L336 84ZM408 72L420 72L420 84L408 84ZM432 72L444 72L444 84L432 84ZM420 84L432 84L432 96L444 96L444 108L420 108ZM480 84L492 84L492 96L480 96ZM468 96L480 96L480 108L492 108L492 120L468 120ZM48 108L48 120L60 120L60 108ZM156 108L156 132L168 132L168 108ZM408 108L420 108L420 120L408 120ZM12 120L24 120L24 132L12 132ZM240 120L252 120L252 132L240 132ZM276 120L300 120L300 132L276 132ZM432 120L468 120L468 132L456 132L456 144L480 144L480 156L432 156L432 144L444 144L444 132L432 132ZM0 132L12 132L12 180L0 180ZM48 132L48 144L72 144L72 132ZM120 132L132 132L132 156L120 156ZM396 132L408 132L408 144L396 144ZM420 132L432 132L432 144L420 144ZM216 144L216 168L228 168L228 144ZM288 144L300 144L300 156L288 156ZM396 156L432 156L432 168L444 168L444 180L432 180L432 192L444 192L444 180L456 180L456 192L468 192L468 204L456 204L456 216L468 216L468 204L492 204L492 216L480 216L480 240L468 240L468 228L432 228L432 216L444 216L444 204L408 204L408 180L396 180ZM480 156L492 156L492 168L480 168ZM468 168L480 168L480 180L492 180L492 192L468 192ZM180 180L180 312L312 312L312 180ZM324 180L324 192L336 192L336 180ZM360 180L384 180L384 192L360 192ZM192 192L300 192L300 300L192 300ZM204 204L204 288L288 288L288 204ZM372 204L384 204L384 216L396 216L396 228L384 228L384 240L372 240L372 228L360 228L360 216L372 216ZM396 204L408 204L408 216L396 216ZM96 216L144 216L144 228L132 228L132 252L144 252L144 264L108 264L108 276L84 276L84 264L72 264L72 276L36 276L36 312L24 312L24 300L12 300L12 288L24 288L24 264L36 264L36 252L48 252L48 264L60 264L60 252L72 252L72 240L60 240L60 228L96 228L96 240L84 240L84 252L96 252L96 240L108 240L108 252L120 252L120 240L108 240L108 228L96 228ZM216 216L276 216L276 276L216 276ZM408 216L420 216L420 252L408 252L408 240L396 240L396 228L408 228ZM228 228L228 264L264 264L264 228ZM348 228L360 228L360 240L348 240ZM0 240L12 240L12 252L24 252L24 264L0 264ZM24 240L36 240L36 252L24 252ZM48 240L60 240L60 252L48 252ZM144 240L156 240L156 252L144 252ZM240 240L252 240L252 252L240 252ZM336 240L348 240L348 252L336 252ZM360 240L372 240L372 252L360 252ZM384 240L396 240L396 252L384 252ZM432 240L444 240L444 252L432 252ZM456 240L468 240L468 252L456 252ZM480 240L492 240L492 252L480 252ZM396 252L408 252L408 264L396 264ZM144 264L156 264L156 276L144 276ZM420 264L444 264L444 276L432 276L432 288L444 288L444 300L420 300ZM480 264L492 264L492 276L480 276ZM72 276L84 276L84 300L48 300L48 288L72 288ZM120 276L132 276L132 300L120 300L120 336L132 336L132 360L168 360L168 372L120 372L120 348L108 348L108 336L96 336L96 360L108 360L108 372L84 372L84 360L72 360L72 348L84 348L84 336L72 336L72 324L48 324L48 312L84 312L84 324L108 324L108 312L96 312L96 300L108 300L108 288L120 288ZM444 276L480 276L480 288L444 288ZM480 288L492 288L492 300L480 300ZM0 300L12 300L12 324L0 324ZM348 300L372 300L372 312L360 312L360 324L348 324ZM468 300L480 300L480 312L492 312L492 324L468 324ZM144 312L156 312L156 324L144 324ZM432 312L444 312L444 324L432 324ZM12 324L24 324L24 336L12 336ZM36 324L48 324L48 336L36 336ZM264 324L264 336L276 336L276 348L288 348L288 336L276 336L276 324ZM336 324L348 324L348 348L360 348L360 360L336 360ZM360 324L372 324L372 348L360 348ZM384 324L396 324L396 348L384 348ZM420 324L432 324L432 336L444 336L444 348L432 348L432 360L456 360L456 348L480 348L480 360L468 360L468 372L408 372L408 360L420 360L420 348L408 348L408 336L420 336ZM444 324L468 324L468 336L444 336ZM0 336L12 336L12 348L24 348L24 360L12 360L12 372L0 372ZM24 336L36 336L36 348L24 348ZM48 336L60 336L60 348L48 348ZM144 336L156 336L156 348L144 348ZM168 336L180 336L180 360L168 360ZM36 348L48 348L48 360L36 360ZM48 360L72 360L72 372L48 372ZM480 360L492 360L492 372L480 372ZM72 372L84 372L84 384L72 384ZM468 372L480 372L480 384L468 384ZM0 384L36 384L36 408L24 408L24 432L12 432L12 444L24 444L24 456L12 456L12 468L0 468L0 408L12 408L12 396L0 396ZM48 384L72 384L72 396L48 396ZM108 384L120 384L120 432L108 432L108 420L96 420L96 396L108 396ZM168 384L180 384L180 396L168 396ZM204 384L204 396L216 396L216 384ZM420 384L444 384L444 396L432 396L432 408L420 408ZM132 396L156 396L156 408L144 408L144 432L132 432ZM444 396L480 396L480 408L492 408L492 420L468 420L468 408L444 408ZM36 408L84 408L84 420L72 420L72 432L60 432L60 420L48 420L48 432L36 432ZM156 408L180 408L180 420L168 420L168 432L156 432ZM372 408L420 408L420 420L408 420L408 432L396 432L396 444L384 444L384 432L372 432ZM432 408L444 408L444 420L432 420ZM84 420L96 420L96 432L84 432ZM204 420L216 420L216 432L204 432ZM288 420L300 420L300 444L288 444ZM420 420L432 420L432 432L420 432ZM24 432L36 432L36 444L24 444ZM48 432L60 432L60 444L48 444ZM72 432L84 432L84 444L72 444ZM96 432L108 432L108 444L96 444ZM120 432L132 432L132 456L144 456L144 468L132 468L132 480L120 480L120 492L108 492L108 480L72 480L72 492L48 492L48 480L60 480L60 468L84 468L84 444L96 444L96 468L120 468ZM144 432L156 432L156 444L144 444ZM168 432L180 432L180 444L168 444ZM192 432L204 432L204 444L192 444ZM240 432L252 432L252 444L240 444ZM312 432L324 432L324 444L312 444ZM336 432L348 432L348 480L336 480ZM360 432L372 432L372 444L360 444ZM408 432L420 432L420 444L408 444ZM432 432L444 432L444 444L432 444ZM456 432L468 432L468 444L456 444ZM480 432L492 432L492 444L480 444ZM180 444L192 444L192 456L180 456ZM372 444L384 444L384 456L396 456L396 468L384 468L384 480L372 480ZM396 444L408 444L408 456L396 456ZM468 444L480 444L480 456L492 456L492 492L456 492L456 468L432 468L432 456L468 456ZM24 456L60 456L60 468L48 468L48 480L36 480L36 492L24 492ZM156 456L180 456L180 468L168 468L168 480L156 480L156 492L144 492L144 468L156 468ZM192 468L204 468L204 480L216 480L216 492L192 492ZM468 468L468 480L480 480L480 468ZM348 480L360 480L360 492L348 492ZM408 480L444 480L444 492L408 492Z" fill="#000000" fill-rule="evenodd"/></svg></g></svg>