<svg width="340" height="239" viewBox="0 0 340 239" fill="none" xmlns="http://www.w3.org/2000/svg">
<g clip-path="url(#clip0_35_22)">
<rect width="340" height="239" rx="8" fill="#0095D9"/>
<path d="M73 103C73 110.713 70.7127 118.254 66.4273 124.667C62.1419 131.081 56.051 136.079 48.9247 139.031C41.7983 141.983 33.9567 142.755 26.3915 141.251C18.8262 139.746 11.8771 136.031 6.42284 130.577C0.968587 125.123 -2.7458 118.174 -4.25063 110.609C-5.75545 103.043 -4.98312 95.2017 -2.0313 88.0753C0.920516 80.949 5.91924 74.8581 12.3328 70.5727C18.7463 66.2873 26.2865 64 34 64L34 75.1552C28.4928 75.1552 23.1093 76.7882 18.5302 79.8479C13.9512 82.9075 10.3822 87.2563 8.27473 92.3442C6.16722 97.4322 5.6158 103.031 6.6902 108.432C7.7646 113.834 10.4166 118.795 14.3107 122.689C18.2049 126.583 23.1664 129.235 28.5677 130.31C33.9691 131.384 39.5678 130.833 44.6558 128.725C49.7437 126.618 54.0925 123.049 57.1521 118.47C60.2118 113.891 61.8448 108.507 61.8448 103H73Z" fill="#79D8FA"/>
<path d="M-2 36C-2 28.2865 0.287305 20.7463 4.57268 14.3328C8.85805 7.91925 14.949 2.92052 22.0753 -0.0312971C29.2017 -2.98312 37.0433 -3.75545 44.6085 -2.25062C52.1738 -0.7458 59.1229 2.96859 64.5772 8.42284C70.0314 13.8771 73.7458 20.8262 75.2506 28.3915C76.7554 35.9567 75.9831 43.7983 73.0313 50.9247C70.0795 58.051 65.0808 64.1419 58.6672 68.4273C52.2537 72.7127 44.7135 75 37 75L37 63.8448C42.5072 63.8448 47.8907 62.2118 52.4698 59.1521C57.0488 56.0925 60.6178 51.7437 62.7253 46.6558C64.8328 41.5678 65.3842 35.9691 64.3098 30.5677C63.2354 25.1664 60.5834 20.2049 56.6893 16.3107C52.7951 12.4166 47.8336 9.7646 42.4323 8.6902C37.0309 7.61581 31.4322 8.16723 26.3442 10.2747C21.2563 12.3822 16.9075 15.9512 13.8479 20.5302C10.7882 25.1093 9.15517 30.4928 9.15517 36L-2 36Z" fill="#F6C03B"/>
<path d="M62 101C62 93.2865 64.2873 85.7463 68.5727 79.3328C72.8581 72.9192 78.949 67.9205 86.0754 64.9687C93.2017 62.0169 101.043 61.2445 108.609 62.7494C116.174 64.2542 123.123 67.9686 128.577 73.4228C134.031 78.8771 137.746 85.8262 139.251 93.3915C140.755 100.957 139.983 108.798 137.031 115.925C134.079 123.051 129.081 129.142 122.667 133.427C116.254 137.713 108.713 140 101 140L101 128.845C106.507 128.845 111.891 127.212 116.47 124.152C121.049 121.092 124.618 116.744 126.725 111.656C128.833 106.568 129.384 100.969 128.31 95.5677C127.235 90.1664 124.583 85.2049 120.689 81.3107C116.795 77.4166 111.834 74.7646 106.432 73.6902C101.031 72.6158 95.4322 73.1672 90.3443 75.2747C85.2563 77.3822 80.9075 80.9512 77.8479 85.5302C74.7882 90.1093 73.1552 95.4928 73.1552 101L62 101Z" fill="#54B649"/>
<path d="M99 208C93.8784 208 88.807 206.991 84.0753 205.031C79.3436 203.071 75.0443 200.199 71.4228 196.577C67.8013 192.956 64.9286 188.656 62.9687 183.925C61.0088 179.193 60 174.122 60 169C60 163.878 61.0088 158.807 62.9687 154.075C64.9286 149.344 67.8014 145.044 71.4228 141.423C75.0443 137.801 79.3437 134.929 84.0753 132.969C88.807 131.009 93.8785 130 99 130L99 141.155C95.3434 141.155 91.7225 141.875 88.3442 143.275C84.966 144.674 81.8964 146.725 79.3107 149.311C76.7251 151.896 74.6741 154.966 73.2747 158.344C71.8754 161.723 71.1552 165.343 71.1552 169C71.1552 172.657 71.8754 176.277 73.2747 179.656C74.6741 183.034 76.7251 186.104 79.3107 188.689C81.8964 191.275 84.966 193.326 88.3442 194.725C91.7225 196.125 95.3434 196.845 99 196.845L99 208Z" fill="#013BA6"/>
<path d="M102 197C107.122 197 112.193 198.009 116.925 199.969C121.656 201.929 125.956 204.801 129.577 208.423C133.199 212.044 136.071 216.344 138.031 221.075C139.991 225.807 141 230.878 141 236C141 241.122 139.991 246.193 138.031 250.925C136.071 255.656 133.199 259.956 129.577 263.577C125.956 267.199 121.656 270.071 116.925 272.031C112.193 273.991 107.122 275 102 275L102 263.845C105.657 263.845 109.277 263.125 112.656 261.725C116.034 260.326 119.104 258.275 121.689 255.689C124.275 253.104 126.326 250.034 127.725 246.656C129.125 243.277 129.845 239.657 129.845 236C129.845 232.343 129.125 228.723 127.725 225.344C126.326 221.966 124.275 218.896 121.689 216.311C119.104 213.725 116.034 211.674 112.656 210.275C109.277 208.875 105.657 208.155 102 208.155L102 197Z" fill="#8DD8F7"/>
<path d="M30 273C24.8785 273 19.8071 271.991 15.0754 270.031C10.3437 268.071 6.04433 265.199 2.42284 261.577C-1.19864 257.956 -4.07136 253.656 -6.0313 248.925C-7.99123 244.193 -8.99999 239.122 -8.99999 234C-9 228.878 -7.99123 223.807 -6.0313 219.075C-4.07136 214.344 -1.19865 210.044 2.42284 206.423C6.04432 202.801 10.3437 199.929 15.0753 197.969C19.807 196.009 24.8785 195 30 195L30 206.155C26.3434 206.155 22.7225 206.875 19.3442 208.275C15.966 209.674 12.8964 211.725 10.3107 214.311C7.7251 216.896 5.67407 219.966 4.27474 223.344C2.8754 226.723 2.15518 230.343 2.15518 234C2.15518 237.657 2.8754 241.277 4.27474 244.656C5.67407 248.034 7.72511 251.104 10.3107 253.689C12.8964 256.275 15.966 258.326 19.3443 259.725C22.7225 261.125 26.3434 261.845 30 261.845L30 273Z" fill="#50B64D"/>
<path d="M34 195C39.1215 195 44.1929 196.009 48.9246 197.969C53.6563 199.929 57.9557 202.801 61.5772 206.423C65.1986 210.044 68.0714 214.344 70.0313 219.075C71.9912 223.807 73 228.878 73 234C73 239.122 71.9912 244.193 70.0313 248.925C68.0714 253.656 65.1986 257.956 61.5772 261.577C57.9557 265.199 53.6563 268.071 48.9247 270.031C44.193 271.991 39.1215 273 34 273L34 261.845C37.6566 261.845 41.2775 261.125 44.6558 259.725C48.034 258.326 51.1036 256.275 53.6893 253.689C56.2749 251.104 58.3259 248.034 59.7253 244.656C61.1246 241.277 61.8448 237.657 61.8448 234C61.8448 230.343 61.1246 226.723 59.7253 223.344C58.3259 219.966 56.2749 216.896 53.6893 214.311C51.1036 211.725 48.034 209.674 44.6557 208.275C41.2775 206.875 37.6566 206.155 34 206.155L34 195Z" fill="#F9BE37"/>
<path d="M118.634 67.5H316.112C322.748 67.5 328.124 72.8859 328.112 79.5219L328.022 129.022C328.01 135.641 322.641 141 316.022 141H103L131.811 112.6C135.504 108.96 136.441 103.361 134.135 98.7171L118.634 67.5Z" fill="#54B649"/>
<path d="M161.924 82.6087C161.964 81.6025 161.671 80.8258 161.043 80.2784C160.423 79.7311 159.485 79.4574 158.23 79.4574C157.376 79.4574 156.636 79.5781 156.008 79.8196C155.38 80.053 154.877 80.379 154.499 80.7976C154.129 81.2081 153.899 81.683 153.811 82.2223C153.722 82.665 153.75 83.0514 153.895 83.3814C154.048 83.7114 154.285 83.9972 154.607 84.2386C154.937 84.4721 155.328 84.6773 155.779 84.8544C156.229 85.0234 156.708 85.1683 157.215 85.2891L159.34 85.8203C160.379 86.0618 161.312 86.3838 162.142 86.7862C162.979 87.1887 163.679 87.6837 164.242 88.2713C164.814 88.8589 165.216 89.5511 165.45 90.348C165.683 91.1449 165.715 92.0585 165.546 93.0888C165.289 94.602 164.689 95.9141 163.747 97.0249C162.806 98.1276 161.57 98.9848 160.041 99.5966C158.511 100.2 156.74 100.502 154.728 100.502C152.732 100.502 151.046 100.196 149.669 99.5845C148.293 98.9728 147.291 98.0672 146.663 96.8679C146.043 95.6605 145.858 94.1674 146.107 92.3885H151.166C151.078 93.2176 151.199 93.9098 151.529 94.4652C151.867 95.0125 152.37 95.4271 153.038 95.7088C153.706 95.9825 154.491 96.1193 155.392 96.1193C156.286 96.1193 157.079 95.9905 157.771 95.733C158.471 95.4754 159.039 95.1172 159.473 94.6584C159.908 94.1996 160.173 93.6723 160.27 93.0767C160.367 92.5213 160.282 92.0545 160.017 91.6761C159.751 91.2978 159.324 90.9759 158.737 90.7102C158.157 90.4366 157.437 90.1951 156.575 89.9858L153.992 89.3097C151.995 88.8026 150.486 88.0097 149.464 86.9311C148.442 85.8525 148.075 84.3996 148.365 82.5724C148.623 81.0753 149.247 79.7673 150.237 78.6484C151.235 77.5215 152.49 76.6482 154.004 76.0284C155.525 75.4006 157.187 75.0866 158.99 75.0866C160.825 75.0866 162.375 75.4046 163.639 76.0405C164.902 76.6683 165.824 77.5457 166.404 78.6726C166.983 79.7995 167.16 81.1115 166.935 82.6087H161.924Z" fill="white"/>
<path d="M166.775 100.152L169.866 81.6065H175.009L171.919 100.152H166.775ZM172.969 79.1918C172.204 79.1918 171.572 78.9382 171.073 78.4311C170.582 77.916 170.381 77.3042 170.47 76.5959C170.558 75.8715 170.904 75.2597 171.508 74.7607C172.112 74.2536 172.796 74 173.561 74C174.325 74 174.949 74.2536 175.432 74.7607C175.915 75.2597 176.116 75.8715 176.036 76.5959C175.955 77.3042 175.613 77.916 175.009 78.4311C174.414 78.9382 173.734 79.1918 172.969 79.1918Z" fill="white"/>
<path d="M181.973 89.4304L180.186 100.152H175.055L178.146 81.6065H183.036L182.505 84.8786H182.71C183.297 83.7919 184.127 82.9347 185.197 82.3068C186.276 81.679 187.503 81.3651 188.88 81.3651C190.167 81.3651 191.242 81.6468 192.103 82.2102C192.973 82.7737 193.584 83.5746 193.939 84.6129C194.301 85.6513 194.361 86.8949 194.12 88.3438L192.14 100.152H186.996L188.819 89.2614C189.004 88.1264 188.859 87.241 188.385 86.6051C187.918 85.9612 187.165 85.6392 186.127 85.6392C185.435 85.6392 184.799 85.7881 184.219 86.0859C183.64 86.3838 183.153 86.8184 182.758 87.3899C182.372 87.9534 182.11 88.6335 181.973 89.4304Z" fill="white"/>
<path d="M202.345 107.493C200.671 107.493 199.274 107.263 198.156 106.805C197.045 106.354 196.2 105.738 195.62 104.957C195.049 104.177 194.735 103.299 194.678 102.325L199.556 101.685C199.645 102.064 199.814 102.414 200.063 102.736C200.321 103.058 200.687 103.315 201.162 103.509C201.645 103.702 202.269 103.798 203.033 103.798C204.152 103.798 205.126 103.525 205.955 102.977C206.784 102.438 207.295 101.532 207.489 100.261L208.044 96.8679H207.827C207.521 97.3831 207.102 97.87 206.571 98.3288C206.048 98.7876 205.408 99.1619 204.651 99.4517C203.903 99.7415 203.037 99.8864 202.055 99.8864C200.655 99.8864 199.439 99.5644 198.409 98.9205C197.387 98.2685 196.646 97.2744 196.188 95.9382C195.737 94.594 195.68 92.8956 196.018 90.843C196.373 88.7422 197.009 86.9875 197.926 85.5788C198.844 84.1702 199.93 83.1158 201.186 82.4155C202.442 81.7152 203.75 81.3651 205.11 81.3651C206.148 81.3651 206.986 81.5421 207.621 81.8963C208.265 82.2424 208.76 82.6771 209.107 83.2003C209.453 83.7154 209.698 84.2225 209.843 84.7216H210.048L210.555 81.6065H215.663L212.548 100.333C212.298 101.919 211.698 103.239 210.749 104.293C209.807 105.356 208.612 106.153 207.163 106.684C205.714 107.223 204.108 107.493 202.345 107.493ZM204.277 96.0227C205.098 96.0227 205.835 95.8175 206.487 95.407C207.147 94.9884 207.698 94.3928 208.141 93.62C208.583 92.8393 208.893 91.9055 209.07 90.8189C209.247 89.7322 209.243 88.7905 209.058 87.9936C208.881 87.1887 208.535 86.5649 208.02 86.1222C207.513 85.6795 206.845 85.4581 206.016 85.4581C205.162 85.4581 204.414 85.6875 203.77 86.1463C203.126 86.5971 202.591 87.2249 202.164 88.0298C201.746 88.8348 201.452 89.7644 201.283 90.8189C201.106 91.8894 201.098 92.8151 201.259 93.5959C201.428 94.3686 201.762 94.9683 202.261 95.3949C202.76 95.8134 203.432 96.0227 204.277 96.0227Z" fill="white"/>
<path d="M224.893 75.4247L220.788 100.152H215.645L219.75 75.4247H224.893Z" fill="white"/>
<path d="M232.292 100.514C230.392 100.514 228.819 100.128 227.571 99.3551C226.323 98.5743 225.446 97.4716 224.939 96.0469C224.44 94.6141 224.355 92.9197 224.685 90.9638C225.007 89.0561 225.655 87.3819 226.629 85.9411C227.611 84.5002 228.843 83.3774 230.324 82.5724C231.805 81.7675 233.455 81.3651 235.274 81.3651C236.498 81.3651 237.604 81.5623 238.594 81.9567C239.593 82.343 240.422 82.9306 241.082 83.7195C241.742 84.5002 242.192 85.4782 242.434 86.6534C242.683 87.8286 242.679 89.205 242.422 90.7827L242.192 92.1953H226.545L227.04 89.0078H237.858C237.979 88.2673 237.93 87.6113 237.713 87.0398C237.496 86.4683 237.133 86.0215 236.626 85.6996C236.119 85.3696 235.495 85.2045 234.755 85.2045C233.998 85.2045 233.29 85.3897 232.63 85.7599C231.97 86.1302 231.415 86.6172 230.964 87.2209C230.521 87.8165 230.235 88.4645 230.107 89.1648L229.539 92.3281C229.378 93.3021 229.41 94.111 229.636 94.755C229.869 95.3989 230.272 95.8819 230.843 96.2038C231.415 96.5178 232.139 96.6747 233.016 96.6747C233.588 96.6747 234.123 96.5942 234.622 96.4332C235.129 96.2723 235.58 96.0348 235.974 95.7209C236.369 95.3989 236.691 95.0005 236.94 94.5256L241.637 94.8395C241.202 95.9825 240.542 96.9806 239.657 97.8338C238.772 98.679 237.705 99.339 236.457 99.8139C235.218 100.281 233.829 100.514 232.292 100.514Z" fill="white"/>
<path d="M256.805 87.9574L256.141 92.0384H244.852L245.516 87.9574H256.805Z" fill="white"/>
<path d="M258.139 100.152L261.23 81.6065H266.217L265.674 84.8423H265.867C266.398 83.6913 267.11 82.822 268.004 82.2344C268.905 81.6387 269.875 81.3409 270.914 81.3409C271.171 81.3409 271.441 81.357 271.723 81.3892C272.012 81.4134 272.27 81.4536 272.495 81.5099L271.723 86.0859C271.497 86.0054 271.175 85.9411 270.757 85.8928C270.346 85.8364 269.956 85.8082 269.586 85.8082C268.837 85.8082 268.141 85.9732 267.497 86.3033C266.853 86.6252 266.309 87.076 265.867 87.6555C265.432 88.2351 265.146 88.9032 265.01 89.6598L263.283 100.152H258.139Z" fill="white"/>
<path d="M271.032 100.152L274.122 81.6065H279.266L276.175 100.152H271.032ZM277.225 79.1918L274.509 79.152L274.726 76.5959L275.009 74H277.817H280.509L280.292 76.5959L280.009 79.152L277.225 79.1918Z" fill="white"/>
<path d="M286.085 100.454C284.668 100.454 283.449 100.092 282.427 99.3672C281.412 98.6347 280.688 97.5601 280.253 96.1435C279.827 94.7188 279.786 92.9721 280.133 90.9034C280.487 88.7784 281.123 87.0116 282.04 85.603C282.958 84.1863 284.044 83.1278 285.3 82.4276C286.556 81.7192 287.864 81.3651 289.224 81.3651C290.254 81.3651 291.088 81.5421 291.723 81.8963C292.367 82.2424 292.862 82.6771 293.209 83.2003C293.555 83.7154 293.796 84.2225 293.933 84.7216H294.09L295.647 75.4247H300.779L296.674 100.152H291.603L292.098 97.1818H291.88C291.558 97.697 291.132 98.2081 290.601 98.7152C290.077 99.2143 289.441 99.6288 288.693 99.9588C287.952 100.289 287.083 100.454 286.085 100.454ZM288.355 96.3608C289.176 96.3608 289.916 96.1354 290.576 95.6847C291.236 95.2259 291.792 94.5859 292.243 93.7649C292.693 92.9439 293.007 91.982 293.184 90.8793C293.37 89.7765 293.374 88.8187 293.196 88.0057C293.019 87.1927 292.673 86.5649 292.158 86.1222C291.651 85.6795 290.979 85.4581 290.142 85.4581C289.297 85.4581 288.548 85.6875 287.896 86.1463C287.252 86.6051 286.717 87.241 286.29 88.054C285.872 88.867 285.574 89.8087 285.397 90.8793C285.22 91.9579 285.208 92.9117 285.361 93.7408C285.513 94.5618 285.839 95.2057 286.338 95.6726C286.838 96.1314 287.51 96.3608 288.355 96.3608Z" fill="white"/>
<path d="M308.274 100.514C306.374 100.514 304.801 100.128 303.553 99.3551C302.305 98.5743 301.428 97.4716 300.921 96.0469C300.422 94.6141 300.337 92.9197 300.667 90.9638C300.989 89.0561 301.637 87.3819 302.611 85.9411C303.593 84.5002 304.825 83.3774 306.306 82.5724C307.787 81.7675 309.437 81.3651 311.256 81.3651C312.48 81.3651 313.586 81.5623 314.576 81.9567C315.575 82.343 316.404 82.9306 317.064 83.7195C317.724 84.5002 318.174 85.4782 318.416 86.6534C318.665 87.8286 318.661 89.205 318.404 90.7827L318.174 92.1953H302.527L303.022 89.0078H313.84C313.961 88.2673 313.912 87.6113 313.695 87.0398C313.478 86.4683 313.116 86.0215 312.608 85.6996C312.101 85.3696 311.478 85.2045 310.737 85.2045C309.98 85.2045 309.272 85.3897 308.612 85.7599C307.952 86.1302 307.397 86.6172 306.946 87.2209C306.503 87.8165 306.217 88.4645 306.089 89.1648L305.521 92.3281C305.36 93.3021 305.392 94.111 305.618 94.755C305.851 95.3989 306.254 95.8819 306.825 96.2038C307.397 96.5178 308.121 96.6747 308.998 96.6747C309.57 96.6747 310.105 96.5942 310.604 96.4332C311.111 96.2723 311.562 96.0348 311.956 95.7209C312.351 95.3989 312.673 95.0005 312.922 94.5256L317.619 94.8395C317.184 95.9825 316.524 96.9806 315.639 97.8338C314.754 98.679 313.687 99.339 312.439 99.8139C311.2 100.281 309.811 100.514 308.274 100.514Z" fill="white"/>
<path d="M158.471 114.607L157.831 118.47H146.651L147.303 114.607H158.471ZM150.563 110.163H155.706L152.833 127.453C152.752 127.928 152.764 128.298 152.869 128.564C152.973 128.821 153.146 129.003 153.388 129.107C153.638 129.212 153.935 129.264 154.281 129.264C154.523 129.264 154.768 129.244 155.018 129.204C155.267 129.156 155.457 129.119 155.585 129.095L155.779 132.923C155.489 133.011 155.098 133.108 154.607 133.212C154.124 133.317 153.553 133.381 152.893 133.406C151.637 133.454 150.575 133.289 149.705 132.911C148.836 132.524 148.212 131.933 147.834 131.136C147.456 130.339 147.375 129.337 147.593 128.129L150.563 110.163Z" fill="white"/>
<path d="M157.711 133.152L160.802 114.607H165.945L162.854 133.152H157.711ZM163.905 112.192H160.802L161.405 109.596L162.009 107H164.496H167.509L166.971 109.596L166.368 112.192H163.905Z" fill="white"/>
<path d="M174.285 133.514C172.378 133.514 170.808 133.112 169.576 132.307C168.353 131.494 167.496 130.367 167.005 128.926C166.522 127.485 166.437 125.827 166.751 123.952C167.057 122.052 167.697 120.386 168.671 118.953C169.645 117.512 170.88 116.389 172.378 115.585C173.883 114.772 175.573 114.365 177.449 114.365C179.067 114.365 180.435 114.659 181.554 115.246C182.673 115.834 183.494 116.659 184.017 117.722C184.54 118.784 184.717 120.032 184.548 121.464H179.706C179.715 120.547 179.477 119.802 178.994 119.231C178.511 118.659 177.803 118.374 176.869 118.374C176.064 118.374 175.324 118.591 174.648 119.026C173.979 119.452 173.412 120.076 172.945 120.897C172.486 121.718 172.164 122.712 171.979 123.879C171.786 125.062 171.782 126.069 171.967 126.898C172.152 127.727 172.506 128.359 173.03 128.793C173.553 129.228 174.213 129.445 175.01 129.445C175.605 129.445 176.157 129.325 176.664 129.083C177.179 128.842 177.63 128.491 178.016 128.033C178.402 127.566 178.7 127.006 178.91 126.354H183.763C183.433 127.779 182.834 129.027 181.964 130.097C181.103 131.168 180.02 132.005 178.716 132.609C177.412 133.212 175.935 133.514 174.285 133.514Z" fill="white"/>
<path d="M190.431 127.815L191.458 121.646H192.206L199.342 114.607H205.246L195.732 123.928H194.5L190.431 127.815ZM184.889 133.152L188.995 108.425H194.138L190.033 133.152H184.889ZM196.48 133.152L192.375 125.075L196.396 121.44L202.505 133.152H196.48Z" fill="white"/>
<path d="M211.298 133.514C209.399 133.514 207.825 133.128 206.577 132.355C205.33 131.574 204.452 130.472 203.945 129.047C203.446 127.614 203.362 125.92 203.692 123.964C204.014 122.056 204.662 120.382 205.636 118.941C206.618 117.5 207.849 116.377 209.33 115.572C210.811 114.768 212.461 114.365 214.28 114.365C215.504 114.365 216.611 114.562 217.601 114.957C218.599 115.343 219.428 115.931 220.088 116.719C220.748 117.5 221.199 118.478 221.44 119.653C221.69 120.829 221.686 122.205 221.428 123.783L221.199 125.195H205.551L206.046 122.008H216.864C216.985 121.267 216.937 120.611 216.719 120.04C216.502 119.468 216.14 119.022 215.633 118.7C215.126 118.37 214.502 118.205 213.761 118.205C213.005 118.205 212.296 118.39 211.636 118.76C210.976 119.13 210.421 119.617 209.97 120.221C209.527 120.817 209.242 121.464 209.113 122.165L208.545 125.328C208.384 126.302 208.417 127.111 208.642 127.755C208.875 128.399 209.278 128.882 209.849 129.204C210.421 129.518 211.145 129.675 212.023 129.675C212.594 129.675 213.129 129.594 213.628 129.433C214.136 129.272 214.586 129.035 214.981 128.721C215.375 128.399 215.697 128 215.947 127.526L220.643 127.839C220.209 128.982 219.549 129.981 218.663 130.834C217.778 131.679 216.711 132.339 215.464 132.814C214.224 133.281 212.836 133.514 211.298 133.514Z" fill="white"/>
<path d="M235.184 114.607L234.544 118.47H223.363L224.015 114.607H235.184ZM227.275 110.163H232.419L229.545 127.453C229.465 127.928 229.477 128.298 229.581 128.564C229.686 128.821 229.859 129.003 230.1 129.107C230.35 129.212 230.648 129.264 230.994 129.264C231.235 129.264 231.481 129.244 231.73 129.204C231.98 129.156 232.169 129.119 232.298 129.095L232.491 132.923C232.201 133.011 231.811 133.108 231.32 133.212C230.837 133.317 230.265 133.381 229.605 133.406C228.35 133.454 227.287 133.289 226.418 132.911C225.549 132.524 224.925 131.933 224.547 131.136C224.168 130.339 224.088 129.337 224.305 128.129L227.275 110.163Z" fill="white"/>
</g>
<defs>
<clipPath id="clip0_35_22">
<rect width="340" height="239" rx="8" fill="white"/>
</clipPath>
</defs>
</svg>
