<svg width="18" height="14" viewBox="0 0 18 14" fill="none" xmlns="http://www.w3.org/2000/svg">
<path d="M16 7H8M16 11H8M16 3H8" stroke="#29A6DF" stroke-width="1.5" stroke-linecap="round" stroke-linejoin="round"/>
<path fill-rule="evenodd" clip-rule="evenodd" d="M3.7608 3.85714C4.28461 3.85714 4.80842 3.33333 4.80842 2.80952C4.80842 2.28571 4.28461 1.7619 3.7608 1.7619C3.237 1.7619 2.71423 2.28571 2.71423 2.80952C2.71423 3.33333 3.237 3.85714 3.7608 3.85714ZM3.7608 8.04762C4.28461 8.04762 4.80842 7.52381 4.80842 7C4.80842 6.47619 4.28461 5.95238 3.7608 5.95238C3.237 5.95238 2.71423 6.47619 2.71423 7C2.71423 7.52381 3.237 8.04762 3.7608 8.04762ZM3.7608 12.2381C4.28461 12.2381 4.80842 11.7143 4.80842 11.1905C4.80842 10.6667 4.28461 10.1429 3.7608 10.1429C3.237 10.1429 2.71423 10.6667 2.71423 11.1905C2.71423 11.7143 3.237 12.2381 3.7608 12.2381Z" fill="#29A6DF"/>
</svg>
